<mxfile host="app.diagrams.net" modified="2021-04-13T09:17:29.845Z" agent="5.0 (Windows)" etag="A6PaVTBlGKu8putANg3t" version="14.5.10" type="github" pages="4">
  <diagram id="QJ-M9dAqX3-2-o2Iueh3" name="风控系统流程说明">
    <mxGraphModel dx="1108" dy="451" grid="1" gridSize="10" guides="1" tooltips="1" connect="1" arrows="1" fold="1" page="1" pageScale="1" pageWidth="1920" pageHeight="1200" math="0" shadow="0">
      <root>
        <mxCell id="0" />
        <mxCell id="1" parent="0" />
        <mxCell id="w2se8LOjkHO6Jgg3hvdt-7" style="edgeStyle=orthogonalEdgeStyle;rounded=0;orthogonalLoop=1;jettySize=auto;html=1;entryX=0.5;entryY=0;entryDx=0;entryDy=0;exitX=0.5;exitY=1;exitDx=0;exitDy=0;" parent="1" source="w2se8LOjkHO6Jgg3hvdt-1" target="w2se8LOjkHO6Jgg3hvdt-2" edge="1">
          <mxGeometry relative="1" as="geometry" />
        </mxCell>
        <mxCell id="w2se8LOjkHO6Jgg3hvdt-8" style="edgeStyle=orthogonalEdgeStyle;rounded=0;orthogonalLoop=1;jettySize=auto;html=1;entryX=0.5;entryY=0;entryDx=0;entryDy=0;" parent="1" source="w2se8LOjkHO6Jgg3hvdt-1" target="w2se8LOjkHO6Jgg3hvdt-6" edge="1">
          <mxGeometry relative="1" as="geometry">
            <Array as="points">
              <mxPoint x="330" y="230" />
              <mxPoint x="330" y="230" />
            </Array>
          </mxGeometry>
        </mxCell>
        <mxCell id="w2se8LOjkHO6Jgg3hvdt-9" style="edgeStyle=orthogonalEdgeStyle;rounded=0;orthogonalLoop=1;jettySize=auto;html=1;" parent="1" source="w2se8LOjkHO6Jgg3hvdt-1" target="w2se8LOjkHO6Jgg3hvdt-5" edge="1">
          <mxGeometry relative="1" as="geometry">
            <Array as="points">
              <mxPoint x="330" y="280" />
              <mxPoint x="480" y="280" />
            </Array>
          </mxGeometry>
        </mxCell>
        <mxCell id="w2se8LOjkHO6Jgg3hvdt-1" value="大流程X" style="rounded=0;whiteSpace=wrap;html=1;fillColor=#f8cecc;strokeColor=#b85450;" parent="1" vertex="1">
          <mxGeometry x="270" y="170" width="120" height="60" as="geometry" />
        </mxCell>
        <mxCell id="w2se8LOjkHO6Jgg3hvdt-2" value="子流程X1" style="rounded=0;whiteSpace=wrap;html=1;fillColor=#d5e8d4;strokeColor=#82b366;" parent="1" vertex="1">
          <mxGeometry x="110" y="330" width="120" height="60" as="geometry" />
        </mxCell>
        <mxCell id="w2se8LOjkHO6Jgg3hvdt-12" style="edgeStyle=orthogonalEdgeStyle;rounded=0;orthogonalLoop=1;jettySize=auto;html=1;entryX=0.5;entryY=0;entryDx=0;entryDy=0;" parent="1" source="w2se8LOjkHO6Jgg3hvdt-5" target="w2se8LOjkHO6Jgg3hvdt-10" edge="1">
          <mxGeometry relative="1" as="geometry" />
        </mxCell>
        <mxCell id="w2se8LOjkHO6Jgg3hvdt-13" style="edgeStyle=orthogonalEdgeStyle;rounded=0;orthogonalLoop=1;jettySize=auto;html=1;" parent="1" source="w2se8LOjkHO6Jgg3hvdt-5" target="w2se8LOjkHO6Jgg3hvdt-11" edge="1">
          <mxGeometry relative="1" as="geometry" />
        </mxCell>
        <mxCell id="w2se8LOjkHO6Jgg3hvdt-5" value="步骤和" style="rounded=0;whiteSpace=wrap;html=1;fillColor=#ffe6cc;strokeColor=#d79b00;" parent="1" vertex="1">
          <mxGeometry x="420" y="330" width="120" height="60" as="geometry" />
        </mxCell>
        <mxCell id="w2se8LOjkHO6Jgg3hvdt-6" value="子流程X2" style="rounded=0;whiteSpace=wrap;html=1;fillColor=#d5e8d4;strokeColor=#82b366;" parent="1" vertex="1">
          <mxGeometry x="270" y="330" width="120" height="60" as="geometry" />
        </mxCell>
        <mxCell id="w2se8LOjkHO6Jgg3hvdt-10" value="子流程X3" style="rounded=0;whiteSpace=wrap;html=1;fillColor=#d5e8d4;strokeColor=#82b366;" parent="1" vertex="1">
          <mxGeometry x="330" y="450" width="120" height="60" as="geometry" />
        </mxCell>
        <mxCell id="w2se8LOjkHO6Jgg3hvdt-11" value="子流程X4" style="rounded=0;whiteSpace=wrap;html=1;fillColor=#d5e8d4;strokeColor=#82b366;" parent="1" vertex="1">
          <mxGeometry x="530" y="450" width="120" height="60" as="geometry" />
        </mxCell>
      </root>
    </mxGraphModel>
  </diagram>
  <diagram id="ijwThVhq8FU2h9F7z8u2" name="流程流转的几种情况">
    <mxGraphModel dx="3028" dy="485" grid="1" gridSize="10" guides="1" tooltips="1" connect="1" arrows="1" fold="1" page="1" pageScale="1" pageWidth="1920" pageHeight="1200" math="0" shadow="0">
      <root>
        <mxCell id="OxI2gEbDwQSYO3MvIidU-0" />
        <mxCell id="OxI2gEbDwQSYO3MvIidU-1" parent="OxI2gEbDwQSYO3MvIidU-0" />
        <mxCell id="OxI2gEbDwQSYO3MvIidU-6" style="edgeStyle=orthogonalEdgeStyle;rounded=0;orthogonalLoop=1;jettySize=auto;html=1;entryX=0.5;entryY=0;entryDx=0;entryDy=0;exitX=0.5;exitY=1;exitDx=0;exitDy=0;" edge="1" parent="OxI2gEbDwQSYO3MvIidU-1" source="OxI2gEbDwQSYO3MvIidU-2" target="OxI2gEbDwQSYO3MvIidU-3">
          <mxGeometry relative="1" as="geometry" />
        </mxCell>
        <mxCell id="OxI2gEbDwQSYO3MvIidU-7" style="edgeStyle=orthogonalEdgeStyle;rounded=0;orthogonalLoop=1;jettySize=auto;html=1;" edge="1" parent="OxI2gEbDwQSYO3MvIidU-1" source="OxI2gEbDwQSYO3MvIidU-2" target="OxI2gEbDwQSYO3MvIidU-5">
          <mxGeometry relative="1" as="geometry" />
        </mxCell>
        <mxCell id="OxI2gEbDwQSYO3MvIidU-8" style="edgeStyle=orthogonalEdgeStyle;rounded=0;orthogonalLoop=1;jettySize=auto;html=1;" edge="1" parent="OxI2gEbDwQSYO3MvIidU-1" target="OxI2gEbDwQSYO3MvIidU-4">
          <mxGeometry relative="1" as="geometry">
            <mxPoint x="490" y="130" as="sourcePoint" />
            <Array as="points">
              <mxPoint x="490" y="170" />
              <mxPoint x="670" y="170" />
            </Array>
          </mxGeometry>
        </mxCell>
        <mxCell id="OxI2gEbDwQSYO3MvIidU-16" style="edgeStyle=orthogonalEdgeStyle;rounded=0;orthogonalLoop=1;jettySize=auto;html=1;entryX=0.5;entryY=0;entryDx=0;entryDy=0;" edge="1" parent="OxI2gEbDwQSYO3MvIidU-1" source="OxI2gEbDwQSYO3MvIidU-2" target="OxI2gEbDwQSYO3MvIidU-15">
          <mxGeometry relative="1" as="geometry">
            <Array as="points">
              <mxPoint x="490" y="170" />
              <mxPoint x="820" y="170" />
            </Array>
          </mxGeometry>
        </mxCell>
        <mxCell id="OxI2gEbDwQSYO3MvIidU-2" value="流程流转" style="rounded=0;whiteSpace=wrap;html=1;fillColor=#ffe6cc;strokeColor=#d79b00;" vertex="1" parent="OxI2gEbDwQSYO3MvIidU-1">
          <mxGeometry x="430" y="70" width="120" height="60" as="geometry" />
        </mxCell>
        <mxCell id="OxI2gEbDwQSYO3MvIidU-10" value="" style="edgeStyle=orthogonalEdgeStyle;rounded=0;orthogonalLoop=1;jettySize=auto;html=1;" edge="1" parent="OxI2gEbDwQSYO3MvIidU-1" source="OxI2gEbDwQSYO3MvIidU-3" target="OxI2gEbDwQSYO3MvIidU-9">
          <mxGeometry relative="1" as="geometry" />
        </mxCell>
        <mxCell id="OxI2gEbDwQSYO3MvIidU-12" style="edgeStyle=orthogonalEdgeStyle;rounded=0;orthogonalLoop=1;jettySize=auto;html=1;" edge="1" parent="OxI2gEbDwQSYO3MvIidU-1" source="OxI2gEbDwQSYO3MvIidU-3" target="OxI2gEbDwQSYO3MvIidU-11">
          <mxGeometry relative="1" as="geometry" />
        </mxCell>
        <mxCell id="OxI2gEbDwQSYO3MvIidU-3" value="正常流转" style="rounded=0;whiteSpace=wrap;html=1;fillColor=#f8cecc;strokeColor=#b85450;" vertex="1" parent="OxI2gEbDwQSYO3MvIidU-1">
          <mxGeometry x="260" y="210" width="120" height="60" as="geometry" />
        </mxCell>
        <mxCell id="OxI2gEbDwQSYO3MvIidU-4" value="超期案件流转" style="rounded=0;whiteSpace=wrap;html=1;fillColor=#fff2cc;strokeColor=#d6b656;" vertex="1" parent="OxI2gEbDwQSYO3MvIidU-1">
          <mxGeometry x="610" y="210" width="120" height="60" as="geometry" />
        </mxCell>
        <mxCell id="OxI2gEbDwQSYO3MvIidU-5" value="中转流转" style="rounded=0;whiteSpace=wrap;html=1;fillColor=#fff2cc;strokeColor=#d6b656;" vertex="1" parent="OxI2gEbDwQSYO3MvIidU-1">
          <mxGeometry x="430" y="210" width="120" height="60" as="geometry" />
        </mxCell>
        <mxCell id="OxI2gEbDwQSYO3MvIidU-9" value="下一步" style="whiteSpace=wrap;html=1;rounded=0;fillColor=#fff2cc;strokeColor=#d6b656;" vertex="1" parent="OxI2gEbDwQSYO3MvIidU-1">
          <mxGeometry x="350" y="360" width="120" height="60" as="geometry" />
        </mxCell>
        <mxCell id="OxI2gEbDwQSYO3MvIidU-14" style="edgeStyle=orthogonalEdgeStyle;rounded=0;orthogonalLoop=1;jettySize=auto;html=1;entryX=0.994;entryY=0.486;entryDx=0;entryDy=0;entryPerimeter=0;" edge="1" parent="OxI2gEbDwQSYO3MvIidU-1" source="OxI2gEbDwQSYO3MvIidU-11" target="OxI2gEbDwQSYO3MvIidU-13">
          <mxGeometry relative="1" as="geometry" />
        </mxCell>
        <mxCell id="OxI2gEbDwQSYO3MvIidU-11" value="需要填写右侧几道题目（审核公估调查内容、审核补充资料）" style="whiteSpace=wrap;html=1;rounded=0;fillColor=#fff2cc;strokeColor=#d6b656;" vertex="1" parent="OxI2gEbDwQSYO3MvIidU-1">
          <mxGeometry x="170" y="360" width="120" height="60" as="geometry" />
        </mxCell>
        <mxCell id="OxI2gEbDwQSYO3MvIidU-13" value="画外音：因为需要填写几道题目，历史处理记录得保存那几道题目，所以和普通的下一步是有小小区别的" style="shape=note;strokeWidth=2;fontSize=14;size=20;whiteSpace=wrap;html=1;fillColor=#fff2cc;strokeColor=#d6b656;fontColor=#666600;" vertex="1" parent="OxI2gEbDwQSYO3MvIidU-1">
          <mxGeometry x="-210" y="325" width="190" height="130" as="geometry" />
        </mxCell>
        <mxCell id="OxI2gEbDwQSYO3MvIidU-15" value="挪入法务库处理" style="rounded=0;whiteSpace=wrap;html=1;fillColor=#fff2cc;strokeColor=#d6b656;" vertex="1" parent="OxI2gEbDwQSYO3MvIidU-1">
          <mxGeometry x="760" y="210" width="120" height="60" as="geometry" />
        </mxCell>
      </root>
    </mxGraphModel>
  </diagram>
  <diagram id="QzJoTCRIiScc9nnJNiMO" name="流程流转流程图">
    <mxGraphModel dx="1108" dy="451" grid="1" gridSize="10" guides="1" tooltips="1" connect="1" arrows="1" fold="1" page="1" pageScale="1" pageWidth="1920" pageHeight="1200" math="0" shadow="0">
      <root>
        <mxCell id="KbT_Vq4MU8cuvfeZaU79-0" />
        <mxCell id="KbT_Vq4MU8cuvfeZaU79-1" parent="KbT_Vq4MU8cuvfeZaU79-0" />
        <mxCell id="KbT_Vq4MU8cuvfeZaU79-4" style="edgeStyle=orthogonalEdgeStyle;rounded=0;orthogonalLoop=1;jettySize=auto;html=1;entryX=0.5;entryY=0;entryDx=0;entryDy=0;" parent="KbT_Vq4MU8cuvfeZaU79-1" source="KbT_Vq4MU8cuvfeZaU79-2" target="KbT_Vq4MU8cuvfeZaU79-3" edge="1">
          <mxGeometry relative="1" as="geometry" />
        </mxCell>
        <mxCell id="KbT_Vq4MU8cuvfeZaU79-2" value="/casesCommon/caseNextStep" style="rounded=0;whiteSpace=wrap;html=1;" parent="KbT_Vq4MU8cuvfeZaU79-1" vertex="1">
          <mxGeometry x="490" y="140" width="190" height="60" as="geometry" />
        </mxCell>
        <mxCell id="KbT_Vq4MU8cuvfeZaU79-6" style="edgeStyle=orthogonalEdgeStyle;rounded=0;orthogonalLoop=1;jettySize=auto;html=1;" parent="KbT_Vq4MU8cuvfeZaU79-1" source="KbT_Vq4MU8cuvfeZaU79-3" target="KbT_Vq4MU8cuvfeZaU79-5" edge="1">
          <mxGeometry relative="1" as="geometry" />
        </mxCell>
        <mxCell id="KbT_Vq4MU8cuvfeZaU79-8" style="edgeStyle=orthogonalEdgeStyle;rounded=0;orthogonalLoop=1;jettySize=auto;html=1;" parent="KbT_Vq4MU8cuvfeZaU79-1" source="KbT_Vq4MU8cuvfeZaU79-3" target="KbT_Vq4MU8cuvfeZaU79-7" edge="1">
          <mxGeometry relative="1" as="geometry" />
        </mxCell>
        <mxCell id="KbT_Vq4MU8cuvfeZaU79-3" value="实时计算案件结论，判断是否需要重设menu_code" style="rounded=0;whiteSpace=wrap;html=1;" parent="KbT_Vq4MU8cuvfeZaU79-1" vertex="1">
          <mxGeometry x="525" y="260" width="120" height="60" as="geometry" />
        </mxCell>
        <mxCell id="KbT_Vq4MU8cuvfeZaU79-5" value="如果结论为撤案/拒付，需要重设meun_code，案件直接下一步到待归档" style="shape=note;strokeWidth=2;fontSize=14;size=20;whiteSpace=wrap;html=1;fillColor=#fff2cc;strokeColor=#d6b656;fontColor=#666600;" parent="KbT_Vq4MU8cuvfeZaU79-1" vertex="1">
          <mxGeometry x="240" y="230" width="120" height="120" as="geometry" />
        </mxCell>
        <mxCell id="KbT_Vq4MU8cuvfeZaU79-10" style="edgeStyle=orthogonalEdgeStyle;rounded=0;orthogonalLoop=1;jettySize=auto;html=1;entryX=1;entryY=0.433;entryDx=0;entryDy=0;entryPerimeter=0;" parent="KbT_Vq4MU8cuvfeZaU79-1" source="KbT_Vq4MU8cuvfeZaU79-7" target="KbT_Vq4MU8cuvfeZaU79-9" edge="1">
          <mxGeometry relative="1" as="geometry" />
        </mxCell>
        <mxCell id="KbT_Vq4MU8cuvfeZaU79-12" style="edgeStyle=orthogonalEdgeStyle;rounded=0;orthogonalLoop=1;jettySize=auto;html=1;" parent="KbT_Vq4MU8cuvfeZaU79-1" source="KbT_Vq4MU8cuvfeZaU79-7" target="KbT_Vq4MU8cuvfeZaU79-11" edge="1">
          <mxGeometry relative="1" as="geometry" />
        </mxCell>
        <mxCell id="KbT_Vq4MU8cuvfeZaU79-7" value="判断流程的前置判断是否已完成" style="rounded=0;whiteSpace=wrap;html=1;" parent="KbT_Vq4MU8cuvfeZaU79-1" vertex="1">
          <mxGeometry x="525" y="440" width="120" height="60" as="geometry" />
        </mxCell>
        <mxCell id="KbT_Vq4MU8cuvfeZaU79-9" value="比如输出初审结果下一步时，需要已生成调查函/调查表" style="shape=note;strokeWidth=2;fontSize=14;size=20;whiteSpace=wrap;html=1;fillColor=#fff2cc;strokeColor=#d6b656;fontColor=#666600;" parent="KbT_Vq4MU8cuvfeZaU79-1" vertex="1">
          <mxGeometry x="240" y="420" width="120" height="120" as="geometry" />
        </mxCell>
        <mxCell id="KbT_Vq4MU8cuvfeZaU79-14" style="edgeStyle=orthogonalEdgeStyle;rounded=0;orthogonalLoop=1;jettySize=auto;html=1;entryX=0;entryY=0.5;entryDx=0;entryDy=0;" parent="KbT_Vq4MU8cuvfeZaU79-1" source="KbT_Vq4MU8cuvfeZaU79-11" target="KbT_Vq4MU8cuvfeZaU79-13" edge="1">
          <mxGeometry relative="1" as="geometry" />
        </mxCell>
        <mxCell id="KbT_Vq4MU8cuvfeZaU79-11" value="策略模式获取下一步的IStrategyService" style="rounded=0;whiteSpace=wrap;html=1;" parent="KbT_Vq4MU8cuvfeZaU79-1" vertex="1">
          <mxGeometry x="525" y="570" width="120" height="60" as="geometry" />
        </mxCell>
        <mxCell id="KbT_Vq4MU8cuvfeZaU79-16" style="edgeStyle=orthogonalEdgeStyle;rounded=0;orthogonalLoop=1;jettySize=auto;html=1;" parent="KbT_Vq4MU8cuvfeZaU79-1" source="KbT_Vq4MU8cuvfeZaU79-13" target="KbT_Vq4MU8cuvfeZaU79-15" edge="1">
          <mxGeometry relative="1" as="geometry" />
        </mxCell>
        <mxCell id="KbT_Vq4MU8cuvfeZaU79-13" value="获取下一步flowCode" style="rounded=0;whiteSpace=wrap;html=1;" parent="KbT_Vq4MU8cuvfeZaU79-1" vertex="1">
          <mxGeometry x="780" y="260" width="120" height="60" as="geometry" />
        </mxCell>
        <mxCell id="KbT_Vq4MU8cuvfeZaU79-18" style="edgeStyle=orthogonalEdgeStyle;rounded=0;orthogonalLoop=1;jettySize=auto;html=1;" parent="KbT_Vq4MU8cuvfeZaU79-1" source="KbT_Vq4MU8cuvfeZaU79-15" target="KbT_Vq4MU8cuvfeZaU79-17" edge="1">
          <mxGeometry relative="1" as="geometry" />
        </mxCell>
        <mxCell id="KbT_Vq4MU8cuvfeZaU79-15" value="处理通用历史处理记录" style="rounded=0;whiteSpace=wrap;html=1;" parent="KbT_Vq4MU8cuvfeZaU79-1" vertex="1">
          <mxGeometry x="780" y="390" width="120" height="60" as="geometry" />
        </mxCell>
        <mxCell id="KbT_Vq4MU8cuvfeZaU79-20" style="edgeStyle=orthogonalEdgeStyle;rounded=0;orthogonalLoop=1;jettySize=auto;html=1;" parent="KbT_Vq4MU8cuvfeZaU79-1" source="KbT_Vq4MU8cuvfeZaU79-17" target="KbT_Vq4MU8cuvfeZaU79-19" edge="1">
          <mxGeometry relative="1" as="geometry" />
        </mxCell>
        <mxCell id="KbT_Vq4MU8cuvfeZaU79-17" value="执行流程流转" style="rounded=0;whiteSpace=wrap;html=1;" parent="KbT_Vq4MU8cuvfeZaU79-1" vertex="1">
          <mxGeometry x="780" y="510" width="120" height="60" as="geometry" />
        </mxCell>
        <mxCell id="KbT_Vq4MU8cuvfeZaU79-19" value="发送MQ通知分配经办人" style="rounded=0;whiteSpace=wrap;html=1;" parent="KbT_Vq4MU8cuvfeZaU79-1" vertex="1">
          <mxGeometry x="780" y="630" width="120" height="60" as="geometry" />
        </mxCell>
      </root>
    </mxGraphModel>
  </diagram>
  <diagram id="9yWlYBvCpSck_L3PBVv3" name="保存混合套题">
    <mxGraphModel dx="1108" dy="451" grid="1" gridSize="10" guides="1" tooltips="1" connect="1" arrows="1" fold="1" page="1" pageScale="1" pageWidth="1920" pageHeight="1200" math="0" shadow="0">
      <root>
        <mxCell id="aDZnevUfQnT6sELxorld-0" />
        <mxCell id="aDZnevUfQnT6sELxorld-1" parent="aDZnevUfQnT6sELxorld-0" />
        <mxCell id="aDZnevUfQnT6sELxorld-4" style="edgeStyle=orthogonalEdgeStyle;rounded=0;orthogonalLoop=1;jettySize=auto;html=1;" edge="1" parent="aDZnevUfQnT6sELxorld-1" source="aDZnevUfQnT6sELxorld-2" target="aDZnevUfQnT6sELxorld-3">
          <mxGeometry relative="1" as="geometry" />
        </mxCell>
        <mxCell id="aDZnevUfQnT6sELxorld-2" value="保存套题" style="rounded=0;whiteSpace=wrap;html=1;" vertex="1" parent="aDZnevUfQnT6sELxorld-1">
          <mxGeometry x="340" y="120" width="120" height="60" as="geometry" />
        </mxCell>
        <mxCell id="aDZnevUfQnT6sELxorld-6" style="edgeStyle=orthogonalEdgeStyle;rounded=0;orthogonalLoop=1;jettySize=auto;html=1;entryX=0.5;entryY=0;entryDx=0;entryDy=0;" edge="1" parent="aDZnevUfQnT6sELxorld-1" source="aDZnevUfQnT6sELxorld-3" target="aDZnevUfQnT6sELxorld-5">
          <mxGeometry relative="1" as="geometry" />
        </mxCell>
        <mxCell id="aDZnevUfQnT6sELxorld-3" value="参数的version+1" style="rounded=0;whiteSpace=wrap;html=1;" vertex="1" parent="aDZnevUfQnT6sELxorld-1">
          <mxGeometry x="340" y="240" width="120" height="60" as="geometry" />
        </mxCell>
        <mxCell id="aDZnevUfQnT6sELxorld-8" style="edgeStyle=orthogonalEdgeStyle;rounded=0;orthogonalLoop=1;jettySize=auto;html=1;" edge="1" parent="aDZnevUfQnT6sELxorld-1" source="aDZnevUfQnT6sELxorld-5" target="aDZnevUfQnT6sELxorld-7">
          <mxGeometry relative="1" as="geometry" />
        </mxCell>
        <mxCell id="aDZnevUfQnT6sELxorld-5" value="保存事件信息" style="rounded=0;whiteSpace=wrap;html=1;" vertex="1" parent="aDZnevUfQnT6sELxorld-1">
          <mxGeometry x="340" y="360" width="120" height="60" as="geometry" />
        </mxCell>
        <mxCell id="aDZnevUfQnT6sELxorld-7" value="保存历史处理记录" style="rounded=0;whiteSpace=wrap;html=1;" vertex="1" parent="aDZnevUfQnT6sELxorld-1">
          <mxGeometry x="540" y="180" width="120" height="60" as="geometry" />
        </mxCell>
      </root>
    </mxGraphModel>
  </diagram>
</mxfile>
